<svg height="480pt" viewBox="0 0 480 480" width="480pt" xmlns="http://www.w3.org/2000/svg"><path d="m405.03125 141.871094 21.648438-43.296875-45.253907-45.253907-43.296875 21.648438c-15.835937-9.445312-32.960937-16.546875-50.832031-21.082031l-15.296875-45.886719h-64l-15.296875 45.886719c-17.871094 4.535156-34.996094 11.636719-50.832031 21.082031l-43.296875-21.648438-45.253907 45.253907 21.648438 43.296875c-9.445312 15.835937-16.546875 32.960937-21.082031 50.832031l-45.886719 15.296875v64l45.886719 15.296875c4.535156 17.871094 11.636719 34.996094 21.082031 50.832031l-21.648438 43.296875 45.253907 45.253907 43.296875-21.648438c15.835937 9.445312 32.960937 16.546875 50.832031 21.082031l15.296875 45.886719h64l15.296875-45.886719c17.871094-4.535156 34.996094-11.636719 50.832031-21.082031l43.296875 21.648438 45.253907-45.253907-21.648438-43.296875c9.445312-15.835937 16.546875-32.960937 21.082031-50.832031l45.886719-15.296875v-64l-45.886719-15.296875c-4.535156-17.871094-11.636719-34.996094-21.082031-50.832031zm-53.03125 122.128906h-19.144531c-2.230469 8.667969-5.671875 16.980469-10.222657 24.6875l13.535157 13.535156-33.945313 33.945313-13.535156-13.535157c-7.707031 4.550782-16.019531 7.992188-24.6875 10.222657v19.144531h-48v-19.144531c-8.667969-2.230469-16.980469-5.671875-24.6875-10.222657l-13.535156 13.535157-33.945313-33.945313 13.535157-13.535156c-4.550782-7.707031-7.992188-16.019531-10.222657-24.6875h-19.144531v-48h19.144531c2.230469-8.667969 5.671875-16.980469 10.222657-24.6875l-13.535157-13.535156 33.945313-33.945313 13.535156 13.535157c7.707031-4.550782 16.019531-7.992188 24.6875-10.222657v-19.144531h48v19.144531c8.667969 2.230469 16.980469 5.671875 24.6875 10.222657l13.535156-13.535157 33.945313 33.945313-13.535157 13.535156c4.550782 7.707031 7.992188 16.019531 10.222657 24.6875h19.144531zm0 0" fill="#ff5023"/><path d="m322.632812 191.3125 13.535157-13.535156-33.945313-33.945313-13.535156 13.535157c-7.707031-4.550782-16.019531-7.992188-24.6875-10.222657v-19.144531h-48v19.144531c-8.667969 2.230469-16.980469 5.671875-24.6875 10.222657l-13.535156-13.535157-33.945313 33.945313 13.535157 13.535156c-4.550782 7.707031-7.992188 16.019531-10.222657 24.6875h-19.144531v48h19.144531c2.230469 8.667969 5.671875 16.980469 10.222657 24.6875l-13.535157 13.535156 33.945313 33.945313 13.535156-13.535157c7.707031 4.550782 16.019531 7.992188 24.6875 10.222657v19.144531h48v-19.144531c8.667969-2.230469 16.980469-5.671875 24.6875-10.222657l13.535156 13.535157 33.945313-33.945313-13.535157-13.535156c4.550782-7.707031 7.992188-16.019531 10.222657-24.6875h19.144531v-48h-19.144531c-2.230469-8.667969-5.671875-16.980469-10.222657-24.6875zm-66.632812 80.6875h-16v-32c-8.835938 0-16-7.164062-16-16s7.164062-16 16-16 16 7.164062 16 16-7.164062 16-16 16v32zm0 0" fill="#ffda44"/><path d="m256 224c0 8.835938-7.164062 16-16 16s-16-7.164062-16-16 7.164062-16 16-16 16 7.164062 16 16zm0 0" fill="#d80027"/><g fill="#231f20"><path d="m480 277.769531v-75.539062l-47.257812-15.75c-4.351563-15.664063-10.605469-30.738281-18.621094-44.878907l22.292968-44.59375-53.414062-53.421874-44.601562 22.292968c-14.140626-8.015625-29.214844-14.269531-44.878907-18.621094l-15.75-47.257812h-75.539062l-15.75 47.257812c-15.664063 4.351563-30.738281 10.605469-44.878907 18.621094l-44.601562-22.292968-53.414062 53.414062 22.292968 44.601562c-8.015625 14.140626-14.269531 29.214844-18.621094 44.878907l-47.257812 15.75v75.539062l47.257812 15.75c4.351563 15.664063 10.605469 30.738281 18.621094 44.878907l-22.292968 44.601562 53.414062 53.414062 44.601562-22.292968c14.144532 8.015625 29.21875 14.269531 44.886719 18.621094l15.742188 47.257812h75.539062l15.75-47.257812c15.664063-4.351563 30.738281-10.605469 44.878907-18.621094l44.59375 22.292968 53.414062-53.414062-22.285156-44.601562c8.015625-14.144532 14.269531-29.21875 18.621094-44.886719zm-61.601562 7.558594c-4.34375 17.125-11.148438 33.53125-20.199219 48.703125l-2.238281 3.761719 21.023437 42.046875-37.144531 37.105468-42.046875-21.023437-3.761719 2.238281c-15.171875 9.0625-31.574219 15.882813-48.703125 20.238282l-4.230469 1.082031-14.867187 44.519531h-52.460938l-14.867187-44.558594-4.230469-1.082031c-17.125-4.34375-33.53125-11.148437-48.703125-20.199219l-3.761719-2.238281-42.046875 21.023437-37.105468-37.105468 21.023437-42.046875-2.238281-3.761719c-9.050782-15.171875-15.855469-31.578125-20.199219-48.703125l-1.082031-4.230469-44.558594-14.867187v-52.460938l44.558594-14.867187 1.082031-4.230469c4.34375-17.125 11.148437-33.53125 20.199219-48.703125l2.238281-3.761719-21.023437-42.046875 37.105468-37.105468 42.046875 21.023437 3.761719-2.238281c15.171875-9.050782 31.578125-15.855469 48.703125-20.199219l4.230469-1.082031 14.867187-44.558594h52.460938l14.867187 44.558594 4.230469 1.082031c17.125 4.34375 33.53125 11.148437 48.703125 20.199219l3.761719 2.238281 42.046875-21.023437 37.105468 37.105468-21.023437 42.046875 2.238281 3.761719c9.0625 15.171875 15.882813 31.574219 20.238282 48.703125l1.082031 4.230469 44.519531 14.867187v52.460938l-44.558594 14.867187zm0 0"/><path d="m332.535156 192.71875 14.945313-14.941406-45.257813-45.257813-14.941406 14.945313c-4.917969-2.511719-10.027344-4.625-15.28125-6.320313v-21.144531h-64v21.144531c-5.253906 1.695313-10.363281 3.808594-15.28125 6.320313l-14.941406-14.945313-45.257813 45.257813 14.945313 14.941406c-2.511719 4.917969-4.625 10.027344-6.320313 15.28125h-21.144531v64h21.144531c1.695313 5.253906 3.808594 10.363281 6.320313 15.28125l-14.945313 14.941406 45.257813 45.257813 14.941406-14.945313c4.917969 2.511719 10.027344 4.625 15.28125 6.320313v21.144531h64v-21.144531c5.253906-1.695313 10.363281-3.808594 15.28125-6.320313l14.941406 14.945313 45.257813-45.257813-14.945313-14.941406c2.511719-4.917969 4.625-10.027344 6.320313-15.28125h21.144531v-64h-21.144531c-1.695313-5.253906-3.808594-10.363281-6.320313-15.28125zm11.464844 63.28125h-17.34375l-1.550781 6c-2.042969 7.941406-5.195313 15.554688-9.363281 22.617188l-3.148438 5.335937 12.253906 12.269531-22.625 22.625-12.269531-12.253906-5.335937 3.148438c-7.0625 4.167968-14.675782 7.320312-22.617188 9.363281l-6 1.550781v17.34375h-32v-17.34375l-6-1.550781c-7.941406-2.042969-15.554688-5.195313-22.617188-9.363281l-5.335937-3.148438-12.269531 12.253906-22.625-22.625 12.253906-12.269531-3.148438-5.335937c-4.167968-7.0625-7.320312-14.675782-9.363281-22.617188l-1.550781-6h-17.34375v-32h17.34375l1.550781-6c2.042969-7.941406 5.195313-15.554688 9.363281-22.617188l3.148438-5.335937-12.253906-12.269531 22.625-22.625 12.269531 12.253906 5.335937-3.148438c7.0625-4.167968 14.675782-7.320312 22.617188-9.363281l6-1.550781v-17.34375h32v17.34375l6 1.550781c7.941406 2.042969 15.554688 5.195313 22.617188 9.363281l5.335937 3.148438 12.269531-12.253906 22.625 22.625-12.253906 12.269531 3.148438 5.335937c4.167968 7.0625 7.320312 14.675782 9.363281 22.617188l1.550781 6h17.34375zm0 0"/><path d="m240 200c-11.675781-.023438-21.664062 8.378906-23.644531 19.886719-1.976563 11.507812 4.632812 22.761719 15.644531 26.640625v33.472656h24v-16h-8v-17.472656c11.011719-3.878906 17.621094-15.132813 15.644531-26.640625-1.980469-11.507813-11.96875-19.910157-23.644531-19.886719zm0 32c-4.417969 0-8-3.582031-8-8s3.582031-8 8-8 8 3.582031 8 8-3.582031 8-8 8zm0 0"/></g></svg>